<?xml version="1.0" encoding="utf-8"?>
<svg version="1.1" xmlns="http://www.w3.org/2000/svg" width="4208" height="1716" xmlns:bx="https://boxy-svg.com" viewBox="0 0 4208 1716"><defs><bx:export><bx:file format="svg"/></bx:export></defs><path d="M0 0 C5.99741474 2.73795021 10.71813312 6.99526229 15.70703125 11.234375 C18.98894838 14.01356789 22.3565337 16.6714312 25.75 19.3125 C30.90728736 23.33265719 35.99971521 27.42401846 41.0625 31.5625 C45.82166361 35.44990751 50.61374695 39.27340157 55.5 43 C61.08673958 47.26083847 66.54244247 51.66458615 71.98388672 56.10888672 C78.58671505 61.49536289 85.28308592 66.75696878 92 72 C100.07682797 78.30454115 108.08944927 84.67619352 116.02758789 91.15478516 C120.98476018 95.19378465 125.99569214 99.15808236 131.03393555 103.09521484 C145.12725671 114.12725671 145.12725671 114.12725671 148 117 C148.10625409 119.66647602 148.1465231 122.30737765 148.14539433 124.97464943 C148.15072025 126.24964494 148.15072025 126.24964494 148.15615377 127.55039793 C148.16693171 130.43591774 148.17047737 133.32140262 148.17408752 136.2069397 C148.18024477 138.28171454 148.18682035 140.35648817 148.19378132 142.43126047 C148.21164064 148.16187478 148.22304695 153.89248686 148.233338 159.62311912 C148.24295301 164.53119808 148.25626957 169.43926418 148.26960696 174.34733422 C148.31726764 191.93205928 148.34986374 209.51679905 148.37890625 227.1015625 C148.38006124 227.79564496 148.38121623 228.48972742 148.38240622 229.20484268 C148.42809827 256.67031546 148.46774579 284.13579765 148.49443116 311.60129584 C148.50105491 318.40851383 148.5079283 325.21573157 148.51489258 332.02294922 C148.51565576 332.77515174 148.51641895 333.52735425 148.51720526 334.30235079 C148.54214973 358.69173763 148.59563064 383.08095397 148.66491084 407.47025213 C148.73597474 432.53305858 148.78108624 457.59577331 148.79241193 482.65868168 C148.79401688 486.19747672 148.79590448 489.73627156 148.79795647 493.27506638 C148.79834935 493.97155576 148.79874223 494.66804514 148.79914702 495.38564026 C148.80620993 506.60274989 148.8404378 517.81962025 148.88461748 529.03663819 C148.92839586 540.30933664 148.94225004 551.58177821 148.92752422 562.85457833 C148.92039748 568.96394113 148.9263916 575.07256505 148.96710205 581.18181229 C149.00405932 586.77205816 149.00429352 592.36104374 148.97497844 597.95132379 C148.97089325 599.9763243 148.98042045 602.00140621 149.00474424 604.02626474 C149.17575767 619.16768116 149.17575767 619.16768116 146.27880085 623.68234324 C144.25825659 625.48934343 142.38388476 626.73125967 140 628 C138.80515639 628.89720537 137.62169724 629.81004789 136.45703125 630.74609375 C135.24439725 631.64621379 134.02945401 632.54322922 132.8125 633.4375 C131.4056626 634.48228243 129.99944478 635.5278995 128.59375 636.57421875 C127.85125 637.1264209 127.10875 637.67862305 126.34375 638.24755859 C122.14522512 641.38683064 117.9798223 644.56949221 113.8125 647.75 C112.92868652 648.42401855 112.04487305 649.09803711 111.13427734 649.79248047 C107.53430789 652.5384402 103.93534443 655.28571515 100.33691406 658.03369141 C90.85853018 665.27125219 81.36631738 672.48720764 71.8125 679.625 C64.64240314 684.98310584 57.55186148 690.43314683 50.50048828 695.94628906 C45.14029766 700.13094746 39.7261101 704.23550048 34.27539062 708.30126953 C25.84343545 714.59592922 17.48988957 720.99394025 9.12792969 727.38110352 C8.07460449 728.18245728 8.07460449 728.18245728 7 729 C6.35192383 729.56452881 5.70384766 730.12905762 5.03613281 730.71069336 C3 732 3 732 -2 732 C-2 490.77 -2 249.54 -2 1 C-1.34 0.67 -0.68 0.34 0 0 Z " transform="translate(403,490)" style="fill: rgb(255, 255, 255);"/><path d="M0 0 C4.73414173 0.66035083 6.81635218 3.86133189 9.6875 7.375 C10.21859375 8.00986328 10.7496875 8.64472656 11.296875 9.29882812 C12.87511065 11.19080942 14.43990498 13.09304642 16 15 C16.77988281 15.95132812 17.55976562 16.90265625 18.36328125 17.8828125 C19.79906144 19.64144638 21.2326232 21.40189355 22.6640625 23.1640625 C26.36127059 27.65264624 30.16434185 32.04914876 33.95703125 36.45703125 C38.21351925 41.40558716 42.42167006 46.3947854 46.63232422 51.38232422 C48.02459417 53.02908979 49.42005473 54.67310067 50.81640625 56.31640625 C55.04853633 61.30026248 59.25737398 66.29559272 63.375 71.375 C67.54156423 76.49733524 71.86201281 81.47417378 76.20043945 86.45043945 C80.1189015 90.95526788 83.92441166 95.53755684 87.6796875 100.1796875 C90.9378045 104.13989032 94.29182245 108.01604195 97.66430664 111.87915039 C98.60146776 112.96110076 99.5296069 114.0509551 100.4470042 115.14971338 C101.46774929 116.36586025 102.50784891 117.56606773 103.56813344 118.74790125 C107.99436706 124.021474 108.86732135 127.88034886 108.7690134 134.66256237 C108.78434135 136.08373514 108.78434135 136.08373514 108.79997894 137.53361848 C108.82689345 140.70908183 108.81114274 143.88287725 108.79554749 147.05839539 C108.80604162 149.35768633 108.81913392 151.65696664 108.83460134 153.95622951 C108.86938755 160.27527427 108.86663061 166.59383188 108.85764325 172.91294563 C108.85178382 179.02786557 108.87981235 185.14268085 108.90385506 191.25754107 C108.95776797 205.30925884 108.97073627 219.36083486 108.97056026 233.41264238 C108.97056597 244.26524253 108.98056162 255.11779051 108.9975872 265.97037697 C109.00238449 269.09504547 109.0071464 272.21971402 109.01190466 275.34438258 C109.01309179 276.12120166 109.01427893 276.89802074 109.01550204 277.69837979 C109.04854704 299.54758077 109.06866959 321.3967631 109.06272221 343.2459898 C109.06250352 344.06966986 109.06228482 344.89334991 109.06205951 345.74198997 C109.0609213 349.91667437 109.05967937 354.09135873 109.05840737 358.26604309 C109.05803107 359.50968716 109.05803107 359.50968716 109.05764717 360.77845536 C109.05713876 362.45508982 109.05662304 364.13172429 109.05610001 365.80835874 C109.0482933 391.89088426 109.08623963 417.97300018 109.15942383 444.05541992 C109.24161151 473.36426841 109.28672939 502.67285213 109.27899545 531.98182327 C109.2783016 535.10806357 109.27774522 538.23430386 109.27728081 541.3605442 C109.27714346 542.13029367 109.27700611 542.90004314 109.2768646 543.69311834 C109.27558395 555.30577736 109.30348523 566.91813359 109.3464222 578.53070641 C109.39526554 591.74177042 109.40588807 604.95222464 109.36559433 618.16333117 C109.34608635 624.90352581 109.34535807 631.64241343 109.39200974 638.38251495 C109.43428545 644.55603517 109.42555609 650.72732859 109.37661152 656.90078018 C109.36781314 659.1309125 109.37749816 661.36121259 109.40778769 663.59115656 C109.65149388 682.82705022 109.65149388 682.82705022 102.7585516 690.5120821 C100.89151829 692.40587829 98.95320068 694.19165271 97 696 C95.10733007 698.11905446 93.30226951 700.30403064 91.5 702.5 C90.58752702 703.58207155 89.67365064 704.66296264 88.7578125 705.7421875 C88.30438477 706.27811523 87.85095703 706.81404297 87.38378906 707.36621094 C85.98398361 709.01890997 84.58208172 710.66980984 83.1796875 712.3203125 C78.94920376 717.30314347 74.7414632 722.29702715 70.625 727.375 C66.45843577 732.49733524 62.13798719 737.47417378 57.79956055 742.45043945 C53.87510903 746.96215363 50.06573217 751.55325555 46.30078125 756.19921875 C42.62227613 760.67712736 38.82960344 765.05599295 35.05078125 769.44921875 C28.73750339 776.78963301 22.47099793 784.16522872 16.375 791.6875 C13.34699641 795.38416506 10.30534259 799.06612329 7.1875 802.6875 C6.47980469 803.51636719 5.77210938 804.34523438 5.04296875 805.19921875 C3 807 3 807 -1 807 C-1.01713037 730.17256219 -1.03303109 653.34512414 -1.04234314 576.51768494 C-1.04255023 574.81351933 -1.04255023 574.81351933 -1.04276149 573.07492614 C-1.04575403 548.38733594 -1.04852427 523.69974573 -1.05106533 499.01215548 C-1.05231272 486.90629701 -1.05360927 474.80043854 -1.05493164 462.69458008 C-1.0550624 461.48986763 -1.05519316 460.28515517 -1.05532788 459.04393629 C-1.05959326 419.95846689 -1.06710757 380.87299893 -1.07629722 341.7875304 C-1.08571952 301.63989306 -1.09188305 261.49225651 -1.09391499 221.34461808 C-1.09420317 215.68093697 -1.0945288 210.01725586 -1.09487724 204.35357475 C-1.09494467 203.23882289 -1.09501209 202.12407102 -1.09508156 200.9755388 C-1.09626571 182.99276238 -1.10091032 165.00998843 -1.10683203 147.02721301 C-1.11270447 128.97169138 -1.11497171 110.91617221 -1.11350138 92.86064965 C-1.11273774 82.11852609 -1.11479572 71.37641146 -1.12079754 60.6342895 C-1.12452743 53.47261589 -1.12467787 46.31094818 -1.12183181 39.14927418 C-1.12031162 35.05966723 -1.12042901 30.97007726 -1.12488318 26.88047207 C-1.12889569 23.16846975 -1.12840341 19.45649784 -1.12413998 15.74449604 C-1.12307596 13.76303532 -1.12697484 11.78157389 -1.13100848 9.80011699 C-1.12876118 8.64253543 -1.12651389 7.48495387 -1.1241985 6.29229409 C-1.12435448 5.286687 -1.12451046 4.28107992 -1.12467116 3.24499989 C-1 1 -1 1 0 0 Z " transform="translate(597,454)" style="fill: rgb(255, 255, 255);"/><path d="M0 0 C0.0171312 68.51901185 0.03303181 137.03802395 0.04234314 205.55703735 C0.0424812 206.57036253 0.04261925 207.58368771 0.04276149 208.62771971 C0.04575407 230.64745368 0.0485243 252.66718766 0.05106533 274.68692168 C0.05231272 285.4846405 0.05360927 296.28235931 0.05493164 307.08007812 C0.0550624 308.1546085 0.05519316 309.22913888 0.05532788 310.33623079 C0.05959289 345.19505308 0.06710692 380.05387375 0.07629722 414.91269506 C0.08572055 450.720272 0.09188329 486.52784804 0.09391499 522.3354262 C0.09420317 527.38741167 0.0945288 532.43939713 0.09487724 537.4913826 C0.09497838 538.98290812 0.09497838 538.98290812 0.09508156 540.50456548 C0.09626549 556.54193363 0.1009095 572.57929902 0.10683203 588.61666605 C0.11270594 604.72080365 0.11497133 620.8249385 0.11350138 636.92907713 C0.11273802 646.50899732 0.11479324 656.08890748 0.12079754 665.66882586 C0.12452962 672.05708367 0.1246763 678.44533487 0.12183181 684.83359312 C0.12031279 688.48064059 0.12042436 692.12766903 0.12488318 695.77471451 C0.12963572 699.69149005 0.12676364 703.60823768 0.12304783 707.52501488 C0.12567484 708.67328522 0.12830186 709.82155557 0.13100848 711.00462198 C0.12763754 712.55730431 0.12763754 712.55730431 0.1241985 714.14135396 C0.12443247 715.48668685 0.12443247 715.48668685 0.12467116 716.85919818 C0 719 0 719 -1 721 C-5.6478962 720.53061974 -7.59552296 718.86900758 -10.80078125 715.5546875 C-11.69603516 714.64203125 -12.59128906 713.729375 -13.51367188 712.7890625 C-14.44714161 711.8182148 -15.38008162 710.84685749 -16.3125 709.875 C-18.13951405 707.99504773 -19.96890312 706.11740039 -21.80078125 704.2421875 C-22.60684814 703.4054248 -23.41291504 702.56866211 -24.2434082 701.70654297 C-26.38183995 699.6069367 -28.53496828 697.64509055 -30.80151367 695.69189453 C-35.19617068 691.88425063 -39.28851225 687.8210166 -43.375 683.6875 C-44.52814697 682.5286731 -44.52814697 682.5286731 -45.70458984 681.34643555 C-48.9585983 678.07623964 -52.20656266 674.8000651 -55.45507812 671.52441406 C-57.84295352 669.11834715 -60.23390793 666.71536962 -62.625 664.3125 C-63.34606934 663.58313232 -64.06713867 662.85376465 -64.81005859 662.10229492 C-68.74232196 658.15132387 -72.7779519 654.41263742 -76.99914551 650.77377319 C-80.57935744 647.59988725 -83.92709986 644.19499267 -87.296875 640.80078125 C-88.43095795 639.66457588 -88.43095795 639.66457588 -89.58795166 638.50541687 C-91.97768444 636.11014014 -94.36390115 633.71139618 -96.75 631.3125 C-98.36565192 629.69182449 -99.98153532 628.0713797 -101.59765625 626.45117188 C-105.14860293 622.8904562 -108.69734169 619.32755732 -112.24407959 615.76264954 C-113.9792321 613.9440886 -113.9792321 613.9440886 -116.0728727 612.40350491 C-118.77580228 609.03242273 -118.59262 605.92444904 -118.58995724 601.78127193 C-118.60505849 600.94126722 -118.62015975 600.1012625 -118.63571861 599.2358031 C-118.68163966 596.40199271 -118.699038 593.56872232 -118.71653748 590.73460388 C-118.74333011 588.68954928 -118.77177192 586.64451573 -118.80172688 584.59950501 C-118.87883944 578.96402915 -118.93036627 573.32856371 -118.97732913 567.69276631 C-119.02075079 562.86172534 -119.0788655 558.03090511 -119.13696741 553.2000218 C-119.3445561 535.88239382 -119.49167546 518.56444437 -119.62109375 501.24609375 C-119.62622078 500.56147523 -119.6313478 499.87685671 -119.6366302 499.17149218 C-119.83915156 472.03128274 -120.01172314 444.89085216 -120.13203704 417.75014944 C-120.16191472 411.02361439 -120.19293106 404.29708458 -120.22436523 397.57055664 C-120.22781026 396.82734856 -120.23125528 396.08414049 -120.23480469 395.31841095 C-120.34705594 371.28869884 -120.58313933 347.26228962 -120.88853503 323.23431487 C-121.20234411 298.49891017 -121.40021636 273.76528254 -121.45139269 249.02787032 C-121.45867497 245.52128893 -121.46720209 242.01471155 -121.4764576 238.50813484 C-121.4782314 237.81812226 -121.4800052 237.12810967 -121.48183276 236.41718762 C-121.51341389 225.3831466 -121.66343346 214.35386539 -121.85896601 203.32164718 C-122.05352879 192.18821581 -122.11311087 181.05869934 -122.050601 169.92343002 C-122.02049828 163.90452284 -122.0441367 157.89999023 -122.22602463 151.88344002 C-122.8407982 130.45455364 -123.0180361 112.42640141 -107.93772562 95.88364126 C-100.82076578 88.52415791 -93.08224697 81.9386227 -85.03327806 75.62935538 C-79.22765435 70.97705306 -73.80937979 65.9544449 -68.59375 60.65625 C-68.02474976 60.08346313 -67.45574951 59.51067627 -66.86950684 58.92053223 C-65.07717018 57.11614749 -63.28815684 55.3085264 -61.5 53.5 C-48.33466737 40.18469613 -48.33466737 40.18469613 -42.15039062 34.92773438 C-36.69878257 30.040598 -31.64595685 24.70457638 -26.5 19.5 C-22.02511319 14.97413807 -17.53284225 10.46784984 -13 6 C-12.19175781 5.195625 -11.38351562 4.39125 -10.55078125 3.5625 C-9.86371094 2.9128125 -9.17664062 2.263125 -8.46875 1.59375 C-7.90607422 1.05427734 -7.34339844 0.51480469 -6.76367188 -0.04101562 C-4.27341852 -1.39507365 -2.68401259 -0.62887908 0 0 Z " transform="translate(1096,499)" style="fill: rgb(255, 255, 255);"/><path d="M0 0 C1.32 0.33 2.64 0.66 4 1 C4 275.23 4 549.46 4 832 C2.35 832 0.7 832 -1 832 C-2.76660156 830.05761719 -2.76660156 830.05761719 -4.390625 827.296875 C-5.0088916 826.26796143 -5.6271582 825.23904785 -6.26416016 824.17895508 C-7.24715088 822.48162231 -7.24715088 822.48162231 -8.25 820.75 C-8.95047686 819.57141761 -9.65282265 818.39394421 -10.35693359 817.2175293 C-11.83549584 814.7423274 -13.30441557 812.26176469 -14.76660156 809.77685547 C-16.92564314 806.11486394 -19.12337269 802.47750674 -21.3359375 798.84765625 C-21.86812141 797.97455559 -21.86812141 797.97455559 -22.41105652 797.08381653 C-23.12538456 795.91231854 -23.83983631 794.74089599 -24.55441284 793.56954956 C-26.34220358 790.63542419 -28.1220252 787.69647548 -29.90234375 784.7578125 C-35.3456518 775.77661134 -40.80945034 766.80790053 -46.27197266 757.83837891 C-48.0819233 754.86543652 -49.89069784 751.89178108 -51.69921875 748.91796875 C-52.31450439 747.90645752 -52.92979004 746.89494629 -53.5637207 745.8527832 C-54.72006167 743.95173309 -55.87617244 742.05054291 -57.03198242 740.14916992 C-57.5654126 739.27236572 -58.09884277 738.39556152 -58.6484375 737.4921875 C-59.14929987 736.64196347 -59.65016223 735.79173944 -60.16620225 734.91575104 C-61.93143613 731.98731436 -61.93143613 731.98731436 -64.04087716 729.44777006 C-71.89600249 718.92145074 -71.13064066 708.1493549 -71.03605652 695.45179749 C-71.04743242 693.05148007 -71.06228111 690.65117704 -71.08028871 688.25090021 C-71.1112693 683.04593539 -71.11757058 677.84155273 -71.10168457 672.63654518 C-71.07812324 664.89593657 -71.10041549 657.15592165 -71.13134998 649.41536332 C-71.18813268 634.78249669 -71.19111894 620.14992045 -71.17762073 605.51697303 C-71.16752508 594.21166067 -71.17223389 582.90643939 -71.18734169 571.60113335 C-71.18945786 569.97494918 -71.19157102 568.34876501 -71.19368118 566.72258083 C-71.19687896 564.27181248 -71.20008739 561.82104415 -71.20333202 559.37027586 C-71.23316256 536.59046913 -71.24696682 513.81069722 -71.22698498 491.03087711 C-71.22585889 489.74343534 -71.22585889 489.74343534 -71.22471006 488.42998464 C-71.21852161 481.46075051 -71.21190979 474.49151677 -71.20526446 467.52228307 C-71.17972008 440.3580221 -71.20430981 413.19422038 -71.26928711 386.0300293 C-71.34224929 355.48243877 -71.37854581 324.93512682 -71.36033612 294.38744539 C-71.35850879 291.12603315 -71.35679845 287.86462088 -71.35515785 284.60320854 C-71.3547275 283.80021962 -71.35429715 282.9972307 -71.35385376 282.16990879 C-71.34809589 270.07914212 -71.37060881 257.98864109 -71.40755272 245.89793587 C-71.44954496 232.13387541 -71.45252402 218.37042437 -71.40462073 204.60637046 C-71.37897927 196.91637642 -71.38311994 189.2278158 -71.43167862 181.53792453 C-71.4646069 175.77479754 -71.43916053 170.01304402 -71.39218608 164.25006848 C-71.3820666 161.93447326 -71.39008938 159.61870383 -71.41914525 157.3032688 C-71.60483193 141.36734238 -68.47224567 130.12822381 -60.3804125 116.36669343 C-58.27996935 112.76551986 -56.36409049 109.07112958 -54.4375 105.375 C-54.00236084 104.55692871 -53.56722168 103.73885742 -53.11889648 102.89599609 C-48.59357007 94.34126944 -44.3130422 85.66293114 -40 77 C-30.64080129 58.20203447 -30.64080129 58.20203447 -27.24520874 51.84086609 C-23.47333427 44.77406388 -19.80260583 37.6658787 -16.24609375 30.48828125 C-15.37693829 28.74199162 -14.50771472 26.99573588 -13.63842773 25.24951172 C-11.89461043 21.74189667 -10.15690977 18.23132487 -8.42211914 14.71923828 C-7.61484057 13.09272655 -6.80747142 11.46625976 -6 9.83984375 C-5.43973366 8.6990612 -5.43973366 8.6990612 -4.8681488 7.53523254 C-2.22638185 2.22638185 -2.22638185 2.22638185 0 0 Z " transform="translate(928,404)" style="fill: rgb(255, 255, 255);"/><path d="M0 0 C1.65 0 3.3 0 5 0 C8.34221714 6.80465497 11.68264396 13.61018686 15.02197266 20.41625977 C16.15211897 22.71918436 17.28263756 25.02192632 18.41357422 27.32446289 C28.4799221 47.82019257 28.4799221 47.82019257 32.87304688 56.96923828 C33.31241825 57.88223336 33.75178962 58.79522844 34.20447528 59.73589003 C35.16085241 61.7416348 36.10463241 63.7534682 37.03174698 65.77290571 C39.55086134 71.19295727 42.16493461 76.37576271 45.30229638 81.45700257 C61.71986313 108.19225231 62.63531042 133.37291395 62.34190911 164.15657071 C62.27885906 171.17409836 62.32366652 178.19010024 62.36944747 185.20761646 C62.45572297 198.95010653 62.44122836 212.69102465 62.38194397 226.43357484 C62.33035993 238.46197899 62.31383042 250.48982544 62.33080673 262.51832962 C62.33243376 263.72254407 62.33243376 263.72254407 62.33409365 264.95108609 C62.33853537 268.21127351 62.34312436 271.47146067 62.34794197 274.73164755 C62.39242468 305.21837704 62.3342018 335.70413338 62.22772608 366.19066814 C62.13408016 393.17798636 62.12751551 420.16398158 62.19580078 447.15136719 C62.27246072 477.58481577 62.29721469 508.01756098 62.23748195 538.45107234 C62.23121841 541.70539436 62.22505893 544.95971657 62.21892929 548.21403885 C62.21737105 549.01513187 62.21581281 549.81622489 62.21420736 550.64159346 C62.19167465 562.65050301 62.20727385 574.65895909 62.24185562 586.66782761 C62.28095951 600.34735527 62.2610145 614.02547482 62.16725959 627.70476244 C62.12095755 634.66534372 62.09836147 641.62371583 62.14953613 648.58432579 C62.35169247 679.79452551 60.29951445 705.2741812 45.86553073 733.29520154 C43.24534771 738.4060002 41.14977206 743.71685192 39.0625 749.0625 C38.37929082 750.7413539 37.69375286 752.41926439 37.00463867 754.09570312 C36.51379288 755.29658569 36.51379288 755.29658569 36.01303101 756.52172852 C30.09189377 771.00715441 24.16393841 785.48978443 18.22583008 799.96826172 C17.54537758 801.62739467 16.86503502 803.28657272 16.18481445 804.94580078 C12.48293098 813.97501167 8.76730425 822.99783785 5 832 C3.35 832 1.7 832 0 832 C0 557.44 0 282.88 0 0 Z " transform="translate(749,477)" style="fill: rgb(255, 255, 255);"/></svg>